<svg width="50" height="50" viewBox="0 0 50 50" fill="none" xmlns="http://www.w3.org/2000/svg">
<rect x="3.33337" y="3.57153" width="3.33333" height="3.57143" fill="#1E1E1E"/>
<rect x="6.66663" y="3.57153" width="3.33333" height="3.57143" fill="#1E1E1E"/>
<rect x="10" width="3.33333" height="3.57143" fill="#1E1E1E"/>
<rect x="13.3333" width="3.33333" height="3.57143" fill="#1E1E1E"/>
<rect x="16.6667" width="3.33333" height="3.57143" fill="#1E1E1E"/>
<rect x="20" width="3.33333" height="3.57143" fill="#1E1E1E"/>
<rect x="23.3333" width="3.33333" height="3.57143" fill="#1E1E1E"/>
<rect x="26.6667" width="3.33333" height="3.57143" fill="#1E1E1E"/>
<rect x="30" width="3.33333" height="3.57143" fill="#1E1E1E"/>
<rect x="33.3333" width="3.33333" height="3.57143" fill="#1E1E1E"/>
<rect x="36.6667" width="3.33333" height="3.57143" fill="#1E1E1E"/>
<rect x="40" y="3.57153" width="3.33333" height="3.57143" fill="#1E1E1E"/>
<rect x="43.3334" y="3.57153" width="3.33333" height="3.57143" fill="#1E1E1E"/>
<rect x="46.6666" y="7.14282" width="3.33333" height="3.57143" fill="#1E1E1E"/>
<rect x="3.33337" y="7.14282" width="3.33333" height="3.57143" fill="#A03D3A"/>
<rect x="6.66663" y="7.14282" width="3.33333" height="3.57143" fill="#A03D3A"/>
<rect x="6.66663" y="10.7144" width="3.33333" height="3.57143" fill="#A03D3A"/>
<rect x="6.66663" y="14.2856" width="3.33333" height="3.57143" fill="#A03D3A"/>
<rect x="6.66663" y="17.8572" width="3.33333" height="3.57143" fill="#A03D3A"/>
<rect x="6.66663" y="21.4285" width="3.33333" height="3.57143" fill="#4D292A"/>
<rect x="40" y="7.14282" width="3.33333" height="3.57143" fill="#A03D3A"/>
<rect x="43.3334" y="7.14282" width="3.33333" height="3.57143" fill="#A03D3A"/>
<rect x="43.3334" y="17.8572" width="3.33333" height="3.57143" fill="#A03D3A"/>
<rect x="33.3334" y="3.57153" width="3.33333" height="3.57143" fill="#A03D3A"/>
<rect x="33.3334" y="7.14282" width="3.33333" height="3.57143" fill="#A03D3A"/>
<rect x="33.3334" y="10.7144" width="3.33333" height="3.57143" fill="#A03D3A"/>
<rect x="33.3334" y="14.2856" width="3.33333" height="3.57143" fill="#A03D3A"/>
<rect x="33.3334" y="17.8572" width="3.33333" height="3.57143" fill="#A03D3A"/>
<rect x="13.3334" y="3.57153" width="3.33333" height="3.57143" fill="#A03D3A"/>
<rect x="13.3334" y="7.14282" width="3.33333" height="3.57143" fill="#A03D3A"/>
<rect x="13.3334" y="10.7144" width="3.33333" height="3.57143" fill="#A03D3A"/>
<rect x="13.3334" y="14.2856" width="3.33333" height="3.57143" fill="#A03D3A"/>
<rect x="13.3334" y="17.8572" width="3.33333" height="3.57143" fill="#A03D3A"/>
<rect x="16.6666" y="17.8572" width="3.33333" height="3.57143" fill="#A03D3A"/>
<rect x="16.6666" y="21.4285" width="3.33333" height="3.57143" fill="#E1D344"/>
<rect x="20" y="21.4285" width="3.33333" height="3.57143" fill="#E1D344"/>
<rect x="23.3334" y="21.4285" width="3.33333" height="3.57143" fill="#E1D344"/>
<rect x="10" y="42.8572" width="3.33333" height="3.57143" fill="#A03D3A"/>
<rect x="13.3334" y="42.8572" width="3.33333" height="3.57143" fill="#A03D3A"/>
<rect x="16.6666" y="42.8572" width="3.33333" height="3.57143" fill="#A03D3A"/>
<rect x="6.66663" y="39.2856" width="3.33333" height="3.57143" fill="#A03D3A"/>
<rect x="10" y="39.2856" width="3.33333" height="3.57143" fill="#A03D3A"/>
<rect x="13.3334" y="39.2856" width="3.33333" height="3.57143" fill="#A03D3A"/>
<rect x="30" y="42.8572" width="3.33333" height="3.57143" fill="#A03D3A"/>
<rect x="33.3334" y="42.8572" width="3.33333" height="3.57143" fill="#A03D3A"/>
<rect x="36.6666" y="42.8572" width="3.33333" height="3.57143" fill="#A03D3A"/>
<rect x="33.3334" y="39.2856" width="3.33333" height="3.57143" fill="#A03D3A"/>
<rect x="36.6666" y="39.2856" width="3.33333" height="3.57143" fill="#A03D3A"/>
<rect x="40" y="39.2856" width="3.33333" height="3.57143" fill="#A03D3A"/>
<rect x="26.6666" y="21.4285" width="3.33333" height="3.57143" fill="#E1D344"/>
<rect x="30" y="21.4285" width="3.33333" height="3.57143" fill="#E1D344"/>
<rect x="36.6666" y="17.8572" width="3.33333" height="3.57143" fill="#E1D344"/>
<rect x="36.6666" y="25" width="3.33333" height="3.57143" fill="#1E1E1E"/>
<rect x="36.6666" y="25" width="3.33333" height="3.57143" fill="#1E1E1E"/>
<rect x="36.6666" y="21.4285" width="3.33333" height="3.57143" fill="#4D292A"/>
<rect x="10" y="17.8572" width="3.33333" height="3.57143" fill="#E1D344"/>
<rect x="10" y="25" width="3.33333" height="3.57143" fill="#1E1E1E"/>
<rect x="10" y="25" width="3.33333" height="3.57143" fill="#1E1E1E"/>
<rect x="10" y="21.4285" width="3.33333" height="3.57143" fill="#4D292A"/>
<rect x="16.6666" y="32.1428" width="3.33333" height="3.57143" fill="#1E1E1E"/>
<rect x="16.6666" y="32.1428" width="3.33333" height="3.57143" fill="#1E1E1E"/>
<rect x="20" y="32.1428" width="3.33333" height="3.57143" fill="#1E1E1E"/>
<rect x="26.6666" y="32.1428" width="3.33333" height="3.57143" fill="#1E1E1E"/>
<rect x="20" y="35.7144" width="3.33333" height="3.57143" fill="#E1D344"/>
<rect x="26.6666" y="35.7144" width="3.33333" height="3.57143" fill="#E1D344"/>
<rect x="20" y="39.2856" width="3.33333" height="3.57143" fill="#E1D344"/>
<rect x="26.6666" y="39.2856" width="3.33333" height="3.57143" fill="#E1D344"/>
<rect x="23.3334" y="39.2856" width="3.33333" height="3.57143" fill="#E1D344"/>
<rect x="20" y="28.5715" width="3.33333" height="3.57143" fill="#1E1E1E"/>
<rect x="23.3334" y="28.5715" width="3.33333" height="3.57143" fill="#1E1E1E"/>
<rect x="26.6666" y="28.5715" width="3.33333" height="3.57143" fill="#1E1E1E"/>
<rect x="16.6666" y="28.5715" width="3.33333" height="3.57143" fill="#1E1E1E"/>
<rect x="30" y="32.1428" width="3.33333" height="3.57143" fill="#1E1E1E"/>
<rect x="30" y="32.1428" width="3.33333" height="3.57143" fill="#1E1E1E"/>
<rect x="30" y="28.5715" width="3.33333" height="3.57143" fill="#1E1E1E"/>
<rect x="33.3334" y="28.5715" width="3.33333" height="3.57143" fill="#1E1E1E"/>
<rect x="13.3334" y="28.5715" width="3.33333" height="3.57143" fill="#1E1E1E"/>
<rect x="33.3334" y="25" width="3.33333" height="3.57143" fill="#1E1E1E"/>
<rect x="43.3334" y="21.4285" width="3.33333" height="3.57143" fill="#4D292A"/>
<rect x="3.33337" y="21.4285" width="3.33333" height="3.57143" fill="#4D292A"/>
<rect x="13.3334" y="25" width="3.33333" height="3.57143" fill="#1E1E1E"/>
<rect x="16.6666" y="39.2856" width="3.33333" height="3.57143" fill="#4D292A"/>
<rect x="20" y="42.8572" width="3.33333" height="3.57143" fill="#4D292A"/>
<rect x="23.3334" y="42.8572" width="3.33333" height="3.57143" fill="#4D292A"/>
<rect x="26.6666" y="42.8572" width="3.33333" height="3.57143" fill="#4D292A"/>
<rect x="30" y="39.2856" width="3.33333" height="3.57143" fill="#4D292A"/>
<rect x="43.3334" y="39.2856" width="3.33333" height="3.57143" fill="#4D292A"/>
<rect x="43.3334" y="42.8572" width="3.33333" height="3.57143" fill="#4D292A"/>
<rect x="40" y="42.8572" width="3.33333" height="3.57143" fill="#4D292A"/>
<rect x="3.33337" y="39.2856" width="3.33333" height="3.57143" fill="#4D292A"/>
<rect x="3.33337" y="42.8572" width="3.33333" height="3.57143" fill="#4D292A"/>
<rect x="6.66663" y="42.8572" width="3.33333" height="3.57143" fill="#4D292A"/>
<rect x="16.6666" y="25" width="3.33333" height="3.57143" fill="#E1D344"/>
<rect x="20" y="25" width="3.33333" height="3.57143" fill="#E1D344"/>
<rect x="23.3334" y="25" width="3.33333" height="3.57143" fill="#1E1E1E"/>
<rect x="26.6666" y="25" width="3.33333" height="3.57143" fill="#E1D344"/>
<rect x="30" y="25" width="3.33333" height="3.57143" fill="#E1D344"/>
<rect x="43.3334" y="35.7144" width="3.33333" height="3.57143" fill="#4D292A"/>
<rect x="30" y="35.7144" width="3.33333" height="3.57143" fill="#4D292A"/>
<rect x="33.3334" y="35.7144" width="3.33333" height="3.57143" fill="#4D292A"/>
<rect x="36.6666" y="35.7144" width="3.33333" height="3.57143" fill="#4D292A"/>
<rect x="40" y="35.7144" width="3.33333" height="3.57143" fill="#4D292A"/>
<rect x="16.6666" y="35.7144" width="3.33333" height="3.57143" fill="#4D292A"/>
<rect x="3.33337" y="35.7144" width="3.33333" height="3.57143" fill="#4D292A"/>
<rect x="6.66663" y="35.7144" width="3.33333" height="3.57143" fill="#4D292A"/>
<rect x="10" y="35.7144" width="3.33333" height="3.57143" fill="#4D292A"/>
<rect x="13.3334" y="35.7144" width="3.33333" height="3.57143" fill="#4D292A"/>
<rect x="33.3334" y="21.4285" width="3.33333" height="3.57143" fill="#E1D344"/>
<rect x="13.3334" y="21.4285" width="3.33333" height="3.57143" fill="#E1D344"/>
<rect x="16.6666" y="3.57153" width="3.33333" height="3.57143" fill="#A03D3A"/>
<rect x="30" y="3.57153" width="3.33333" height="3.57143" fill="#A03D3A"/>
<rect x="30" y="17.8572" width="3.33333" height="3.57143" fill="#A03D3A"/>
<rect x="20" y="3.57153" width="3.33333" height="3.57143" fill="#D78134"/>
<rect x="23.3334" y="3.57153" width="3.33333" height="3.57143" fill="#D78134"/>
<rect x="26.6666" y="3.57153" width="3.33333" height="3.57143" fill="#D78134"/>
<rect x="26.6666" y="3.57153" width="3.33333" height="3.57143" fill="#D78134"/>
<rect x="20" y="7.14282" width="3.33333" height="3.57143" fill="#D78134"/>
<rect x="23.3334" y="7.14282" width="3.33333" height="3.57143" fill="#D78134"/>
<rect x="26.6666" y="7.14282" width="3.33333" height="3.57143" fill="#D78134"/>
<rect x="26.6666" y="7.14282" width="3.33333" height="3.57143" fill="#D78134"/>
<rect x="30" y="7.14282" width="3.33333" height="3.57143" fill="#D78134"/>
<rect x="30" y="10.7144" width="3.33333" height="3.57143" fill="#D78134"/>
<rect x="30" y="14.2856" width="3.33333" height="3.57143" fill="#D78134"/>
<rect x="16.6666" y="14.2856" width="3.33333" height="3.57143" fill="#D78134"/>
<rect x="16.6666" y="10.7144" width="3.33333" height="3.57143" fill="#D78134"/>
<rect x="16.6666" y="7.14282" width="3.33333" height="3.57143" fill="#D78134"/>
<rect x="3.33337" y="14.2856" width="3.33333" height="3.57143" fill="#D78134"/>
<rect x="3.33337" y="10.7144" width="3.33333" height="3.57143" fill="#D78134"/>
<rect x="43.3334" y="14.2856" width="3.33333" height="3.57143" fill="#D78134"/>
<rect x="43.3334" y="10.7144" width="3.33333" height="3.57143" fill="#D78134"/>
<rect x="36.6666" y="7.14282" width="3.33333" height="3.57143" fill="#D78134"/>
<rect x="36.6666" y="3.57153" width="3.33333" height="3.57143" fill="#D78134"/>
<rect x="10" y="7.14282" width="3.33333" height="3.57143" fill="#D78134"/>
<rect x="10" y="3.57153" width="3.33333" height="3.57143" fill="#D78134"/>
<rect x="10" y="14.2856" width="3.33333" height="3.57143" fill="#E1D344"/>
<rect x="10" y="10.7144" width="3.33333" height="3.57143" fill="#D78134"/>
<rect x="36.6666" y="14.2856" width="3.33333" height="3.57143" fill="#E1D344"/>
<rect x="36.6666" y="10.7144" width="3.33333" height="3.57143" fill="#D78134"/>
<rect x="20" y="10.7144" width="3.33333" height="3.57143" fill="#D78134"/>
<rect x="23.3334" y="10.7144" width="3.33333" height="3.57143" fill="#D78134"/>
<rect x="26.6666" y="10.7144" width="3.33333" height="3.57143" fill="#D78134"/>
<rect x="26.6666" y="10.7144" width="3.33333" height="3.57143" fill="#D78134"/>
<rect x="20" y="14.2856" width="3.33333" height="3.57143" fill="#D78134"/>
<rect x="23.3334" y="14.2856" width="3.33333" height="3.57143" fill="#D78134"/>
<rect x="26.6666" y="14.2856" width="3.33333" height="3.57143" fill="#D78134"/>
<rect x="26.6666" y="14.2856" width="3.33333" height="3.57143" fill="#D78134"/>
<rect x="20" y="17.8572" width="3.33333" height="3.57143" fill="#D78134"/>
<rect x="23.3334" y="17.8572" width="3.33333" height="3.57143" fill="#D78134"/>
<rect x="26.6666" y="17.8572" width="3.33333" height="3.57143" fill="#D78134"/>
<rect x="26.6666" y="17.8572" width="3.33333" height="3.57143" fill="#D78134"/>
<rect x="36.6666" y="28.5715" width="3.33333" height="3.57143" fill="#1E1E1E"/>
<rect x="40" y="28.5715" width="3.33333" height="3.57143" fill="#1E1E1E"/>
<rect x="43.3334" y="28.5715" width="3.33333" height="3.57143" fill="#1E1E1E"/>
<rect x="40" y="25" width="3.33333" height="3.57143" fill="#1E1E1E"/>
<rect x="43.3334" y="25" width="3.33333" height="3.57143" fill="#1E1E1E"/>
<rect x="40" y="32.1428" width="3.33333" height="3.57143" fill="#1E1E1E"/>
<rect x="43.3334" y="32.1428" width="3.33333" height="3.57143" fill="#1E1E1E"/>
<rect x="33.3334" y="32.1428" width="3.33333" height="3.57143" fill="#1E1E1E"/>
<rect x="36.6666" y="32.1428" width="3.33333" height="3.57143" fill="#1E1E1E"/>
<rect x="3.33337" y="28.5715" width="3.33333" height="3.57143" fill="#1E1E1E"/>
<rect x="6.66663" y="28.5715" width="3.33333" height="3.57143" fill="#1E1E1E"/>
<rect x="3.33337" y="25" width="3.33333" height="3.57143" fill="#1E1E1E"/>
<rect x="6.66663" y="25" width="3.33333" height="3.57143" fill="#1E1E1E"/>
<rect x="3.33337" y="32.1428" width="3.33333" height="3.57143" fill="#1E1E1E"/>
<rect x="6.66663" y="32.1428" width="3.33333" height="3.57143" fill="#1E1E1E"/>
<rect x="10" y="32.1428" width="3.33333" height="3.57143" fill="#1E1E1E"/>
<rect x="10" y="28.5715" width="3.33333" height="3.57143" fill="#1E1E1E"/>
<rect x="13.3334" y="32.1428" width="3.33333" height="3.57143" fill="#1E1E1E"/>
<rect x="40" y="10.7144" width="3.33333" height="3.57143" fill="#A03D3A"/>
<rect x="40" y="14.2856" width="3.33333" height="3.57143" fill="#A03D3A"/>
<rect x="40" y="17.8572" width="3.33333" height="3.57143" fill="#A03D3A"/>
<rect x="40" y="21.4285" width="3.33333" height="3.57143" fill="#4D292A"/>
<rect x="3.33337" y="17.8572" width="3.33333" height="3.57143" fill="#A03D3A"/>
<rect x="46.6666" y="10.7144" width="3.33333" height="3.57143" fill="#1E1E1E"/>
<rect x="46.6666" y="14.2856" width="3.33333" height="3.57143" fill="#1E1E1E"/>
<rect x="46.6666" y="17.8572" width="3.33333" height="3.57143" fill="#1E1E1E"/>
<rect x="46.6666" y="21.4285" width="3.33333" height="3.57143" fill="#1E1E1E"/>
<rect x="46.6666" y="25" width="3.33333" height="3.57143" fill="#1E1E1E"/>
<rect x="46.6666" y="28.5715" width="3.33333" height="3.57143" fill="#1E1E1E"/>
<rect x="46.6666" y="32.1428" width="3.33333" height="3.57143" fill="#1E1E1E"/>
<rect x="46.6666" y="35.7144" width="3.33333" height="3.57143" fill="#1E1E1E"/>
<rect x="46.6666" y="39.2856" width="3.33333" height="3.57143" fill="#1E1E1E"/>
<rect x="46.6666" y="42.8572" width="3.33333" height="3.57143" fill="#1E1E1E"/>
<rect x="46.6666" y="46.4285" width="3.33333" height="3.57143" fill="#1E1E1E"/>
<rect x="23.3334" y="32.1428" width="3.33333" height="3.57143" fill="#1E1E1E"/>
<rect x="23.3334" y="35.7144" width="3.33333" height="3.57143" fill="#1E1E1E"/>
<rect y="7.14282" width="3.33333" height="3.57143" fill="#1E1E1E"/>
<rect y="10.7144" width="3.33333" height="3.57143" fill="#1E1E1E"/>
<rect y="14.2856" width="3.33333" height="3.57143" fill="#1E1E1E"/>
<rect y="17.8572" width="3.33333" height="3.57143" fill="#1E1E1E"/>
<rect y="21.4285" width="3.33333" height="3.57143" fill="#1E1E1E"/>
<rect y="25" width="3.33333" height="3.57143" fill="#1E1E1E"/>
<rect y="28.5715" width="3.33333" height="3.57143" fill="#1E1E1E"/>
<rect y="32.1428" width="3.33333" height="3.57143" fill="#1E1E1E"/>
<rect y="35.7144" width="3.33333" height="3.57143" fill="#1E1E1E"/>
<rect y="39.2856" width="3.33333" height="3.57143" fill="#1E1E1E"/>
<rect y="42.8572" width="3.33333" height="3.57143" fill="#1E1E1E"/>
<rect y="46.4285" width="3.33333" height="3.57143" fill="#1E1E1E"/>
<rect x="3.33337" y="46.4285" width="3.33333" height="3.57143" fill="#1E1E1E"/>
<rect x="6.66663" y="46.4285" width="3.33333" height="3.57143" fill="#1E1E1E"/>
<rect x="10" y="46.4285" width="3.33333" height="3.57143" fill="#1E1E1E"/>
<rect x="13.3334" y="46.4285" width="3.33333" height="3.57143" fill="#1E1E1E"/>
<rect x="16.6666" y="46.4285" width="3.33333" height="3.57143" fill="#1E1E1E"/>
<rect x="20" y="46.4285" width="3.33333" height="3.57143" fill="#1E1E1E"/>
<rect x="23.3334" y="46.4285" width="3.33333" height="3.57143" fill="#1E1E1E"/>
<rect x="26.6666" y="46.4285" width="3.33333" height="3.57143" fill="#1E1E1E"/>
<rect x="30" y="46.4285" width="3.33333" height="3.57143" fill="#1E1E1E"/>
<rect x="33.3334" y="46.4285" width="3.33333" height="3.57143" fill="#1E1E1E"/>
<rect x="36.6666" y="46.4285" width="3.33333" height="3.57143" fill="#1E1E1E"/>
<rect x="40" y="46.4285" width="3.33333" height="3.57143" fill="#1E1E1E"/>
<rect x="43.3334" y="46.4285" width="3.33333" height="3.57143" fill="#1E1E1E"/>
</svg>
